<svg xmlns="http://www.w3.org/2000/svg" viewBox="0 0 866.95 184.92"><defs><style>.cls-1{fill:currentColor;}</style></defs><title>Gitlog Logo</title><g id="Layer_2" data-name="Layer 2"><g id="Layer_1-2" data-name="Layer 1"><path class="cls-1" d="M95.58,184.92C44,184.92,0,145.06,0,92.46,0,40.83,43.71,0,94.62,0c35.07,0,74,21.61,86.22,55.72H141.45c-10.32-15.85-28.82-25-47.55-25-34.34,0-61,27.86-61,62a63.32,63.32,0,0,0,5,24c10.09,24,31.71,37.46,57.64,37.46a58.31,58.31,0,0,0,52.6-32.66H73.73V90.78h116v3.84C189.72,145.3,145.3,184.92,95.58,184.92Z"/><path class="cls-1" d="M212.53,181.32V3.6h32.91V181.32Z"/><path class="cls-1" d="M329.73,34.34v147h-32.9v-147h-32.9V3.6h98.94V34.34Z"/><path class="cls-1" d="M380.64,181.32V3.6h32.9v147h54.28v30.74Z"/><path class="cls-1" d="M569.88,184.92c-50.92,0-92.94-40.83-92.94-92a92.94,92.94,0,0,1,185.88,0C662.82,144.09,620.79,184.92,569.88,184.92Zm0-154.18c-34.11,0-60,28.58-60,62,0,33.14,26.42,61.48,60,61.48s60-28.34,60-61.48C629.92,59.32,604,30.74,569.88,30.74Z"/><path class="cls-1" d="M772.8,184.92c-51.63,0-95.58-39.86-95.58-92.46C677.22,40.83,720.93,0,771.84,0c35.07,0,74,21.61,86.22,55.72H818.67c-10.32-15.85-28.81-25-47.55-25-34.34,0-61,27.86-61,62a63.14,63.14,0,0,0,5,24c10.08,24,31.7,37.46,57.63,37.46a58.31,58.31,0,0,0,52.6-32.66H751V90.78H867v3.84C867,145.3,822.52,184.92,772.8,184.92Z"/><path class="cls-1" d="M570,50.41a42.05,42.05,0,1,0,41.91,42.22A42.06,42.06,0,0,0,570,50.41ZM557.09,81.83a12.8,12.8,0,1,1,12.75,12.82A12.8,12.8,0,0,1,557.09,81.83Zm33.2,41.59a37.69,37.69,0,0,1-21.45,6.13,35.83,35.83,0,0,1-22-8.09,1.76,1.76,0,0,1-.57-1.39c1.11-9.08,8.76-17.3,17.69-19.55a24.06,24.06,0,0,1,28.75,15.87C594.08,120.59,594,121,590.29,123.42Z"/></g></g></svg>
